<svg viewBox="0 0 105.833 75.406">
	<defs>
		<mask id="a" maskUnits="userSpaceOnUse">
			<path stroke-width=".796" d="M459.249 150.181h10.067v18.168h-10.067z"/>
		</mask>
	</defs>
	<g stroke="#333">
		<path fill="#333" stroke-width=".794" d="M313.052 131.906h190.015v45.318H313.052z" mask="url(#a)" transform="matrix(.24263 0 0 .24335 -63.747 32.181)"/>
		<path fill="none" stroke-width=".794" d="M280.107-97.596h-14.07v-18.385h30.988v-4.23h-34.268v62.062h3.28v-37.72h14.07" transform="matrix(.24263 0 0 .24335 -63.649 31.278)"/>
		<path fill="none" stroke-width=".794" d="M266.037-108.73h1.64v-3.971h11.049v8.718h-11.049v-4.748zM292.882-97.682v-7.423h4.23v5.092h15.968v4.23h-19.421v32.541h15.278v-32.023h-15.278v14.414h8.545v-7.336h3.97v-4.316h-8.89v5.006h4.661v-.69h6.819v20.198h-15.02v1.122h15.538v-16.4h10.444v-25.205h76.735v25.118h2.072v-27.103h-79.497v27.19" transform="matrix(.24263 0 0 .24335 -63.649 31.278)"/>
		<path fill="none" stroke-width=".794" d="M309.282-66.867v11.23h3.742v-23.702h10.62v-3.447h.352v3.447h-10.972v11.112h30.102v-10.972" transform="matrix(.24263 0 0 .24335 -63.649 31.278)"/>
		<path fill="none" stroke-width=".794" d="M317.736-77.651h17.443v7.947h-17.443z" transform="matrix(.24263 0 0 .24335 -63.649 31.278)"/>
		<path fill="none" stroke-width=".794" d="M327.442-76.315v5.416h1.055v-5.486h-1.055zM333.702-76.385v5.486h-4.431v-5.486zM262.58-42.506h50.561v12.039h13.531v-11.07h-1.809v10.96h-.212v-11.067h-11.173v12.875h10.428v20.856h45.117v12.45h-96.086v7.767h-4.15V.493h40.86V-37.92h-46.925v-4.586z" transform="matrix(.24263 0 0 .24335 -63.649 31.278)"/>
		<path fill="none" stroke-width=".794" d="M313.141-30.467V2.834h51.732V-7.913M313.052 4.962v126.944h4.15v34.476H432.76v-30.22h1.703v31.603H315.5v-31.603h1.596v-.106h-7.449v28.624h3.192v7.342h-3.298V44.972h-40.86V29.648h4.043v10.747h36.923V31.67h3.512v-.425h-3.831V4.962z" transform="matrix(.24263 0 0 .24335 -63.649 31.278)"/>
		<path fill="none" stroke-width=".794" d="M272.724 36.459h4.256v-2.66h25.325v2.66h3.192v4.043M314.648 67.423l5.108.107v4.362l3.724 10.641-3.724 10.64v3.512l-5.001.213zM317.309 55.186h7.129v7.343h-7.13zM317.415 101.474v6.916h6.916v-7.236h-6.916zM432.441 132.864v3.298h6.065v35.86M465.321 133.077v3.085h-22.877v15.536h.425" transform="matrix(.24263 0 0 .24335 -63.649 31.278)"/>
		<path fill="none" stroke-width=".794" d="M432.441 132.864h32.987V106.9h30.006v25.006h-16.918v1.703h7.023" transform="matrix(.24263 0 0 .24335 -63.649 31.278)"/>
		<path fill="none" stroke-width=".794" d="M434.995 131.8h27.879V95.302h-8.194v7.023h6.598v-6.278h.744v5.959h.852V73.488h-5.533v2.767h2.234v10.428h-2.554v3.83h5.853V62.21h-7.662v7.023h7.662V45.397h-1.596V31.138h4.15v74.06h39.902v4.043h-5.746v62.78h-21.707v-4.575" transform="matrix(.24263 0 0 .24335 -63.649 31.278)"/>
		<g fill="none" stroke-width=".794">
			<path d="M349.756 72.915h2.588v-8.76h18.714v8.561h3.185V60.572h-24.686v12.343z" transform="matrix(.24263 0 0 .24335 -63.649 31.278)"/>
			<path d="M352.344 64.156v-1.784h18.658v10.284h-8.684v-7.998h-.8v7.998h-9.174z" transform="matrix(.24263 0 0 .24335 -63.649 31.278)"/>
		</g>
		<path fill="none" stroke-width=".794" d="M350.32 76.655H375v34.506h-24.68z" transform="matrix(.24263 0 0 .24335 -63.649 31.278)"/>
		<path fill="none" stroke-width=".794" d="M355.69 82.596h13.37v24.337h-13.37zM380.713 72.656h11.998v42.732h-11.883v-2.856h10.054V75.169h-1.828v37.249h-8.226v-9.027h8.112v-9.14h-8.227v9.254h.115V84.881h8.226v-.228h-8.226v-9.484h11.883v-2.628h-11.998zM380.713 72.541v2.971" transform="matrix(.24263 0 0 .24335 -63.649 31.278)"/>
		<path fill="none" stroke-width=".794" d="M373.417 132.3h19.838v-6.859h1.96v-79.72h-1.96V31.27h40.902V4.697h4.53V-6.079h-1.836V-17.59h8.694v-6.613h-8.817v6.858h1.102v-6.98h-1.102v-2.94h5.144v-32.084h-4.776v32.084h-.368v-35.023h9.185v-7.47h-9.185v7.715h1.592v-7.837h-1.714v-2.572h2.082v-11.021h-1.592V-95.23h3.184v-7.593h-3.062v-5.878h28.166v27.798h-13.226v1.96h24.247v-1.96h-10.899V-108.7h10.899v29.513h4.163l.036-48.802-2.853-.124c-.156 5.071.385 15.172-1.469 19.291h-39.186v-18.736h-33.677v16.532h31.105v27.676h-2.817v4.04h2.94V4.699" transform="matrix(.24263 0 0 .24335 -63.649 31.278)"/>
		<path fill="none" stroke-width=".794" d="M434.157 31.27H445.3v13.104h-2.571V34.087h-45.065v33.431h32.574v31.84h-16.165V93.48h-5.02V72.417h5.02v-4.899" transform="matrix(.24263 0 0 .24335 -63.649 31.278)"/>
		<path fill="none" stroke-width=".794" d="M397.664 67.518v31.717h16.164M397.664 99.235v32.697h7.347v4.286h-31.594v-4.164M465.552 49.974h12.011v33.595h-11.662v-2.437h2.088V52.759h-1.74v-2.785z" transform="matrix(.24263 0 0 .24335 -63.649 31.278)"/>
		<path fill="none" stroke-width=".794" d="M467.99 52.759h9.747v9.573h-8.181v9.4h8.007v9.052h-8.007V52.759zM468.512 39.007h8.355v7.833h-8.355zM489.748 44.578h2.61v-1.045h8.53v1.219h3.133V32.219h-14.795v12.359z" transform="matrix(.24263 0 0 .24335 -63.649 31.278)"/>
		<path fill="none" stroke-width=".794" d="M492.359 34.656v9.051h8.53v-9.225h-8.53zM491.315 55.022h10.966v25.065h-10.966z" transform="matrix(.24263 0 0 .24335 -63.649 31.278)"/>
		<path fill="none" stroke-width=".794" d="M487.137 50.148h19.321v34.987h-19.321zM467.815 89.313h7.485v7.485h-7.485zM491.315 90.183h8.877v7.311h-8.703v1.567h8.877v1.915h-11.662v-12.36h2.61z" transform="matrix(.24263 0 0 .24335 -63.649 31.278)"/>
		<path fill="none" stroke-width=".794" d="M491.315 90.183v10.618h11.836V88.443h-2.959V100.8h2.611M505.33 109.241v24.807h77.022v-28.72h41.254V33.958h-72.76v-2.785H672.17v25.414h-3.655V33.785H627.61V58.33h-4.178v46.824h-8.355v-6.092h-32.725v10.27h1.915v27.154h-80.42v-27.502h1.483z" transform="matrix(.24263 0 0 .24335 -63.649 31.278)"/>
		<path fill="none" stroke-width=".794" d="M584.267 109.33h3.487v26.745h66.978v-4.878h-28.875v-21.755H591.71v22.546h34.148v-22.414h1.714v-4.878h-1.318V77.799h-2.769M576.415 69.888h26.897v11.207h-27.424V69.888zM562.44 34.29v6.46h10.811v25.974h32.698V40.487h10.943v-6.593" transform="matrix(.24263 0 0 .24335 -63.649 31.278)"/>
		<path fill="none" stroke-width=".794" d="M573.12 50.77h5.8v-5.405h21.36v5.274h5.669M598.434 30.73v-5.406h30.851v5.406h.528M639.042 76.612h29.533v-5.669h3.56v46.673h-3.428V78.59h-29.665z" transform="matrix(.24263 0 0 .24335 -63.649 31.278)"/>
		<path fill="none" stroke-width=".794" d="M657.764 78.59v26.237h10.811M666.07 107.332v18.723l-3.56 3.296h-18.722l-.131-3.165.79-1.582-.131-6.856 8.702-8.833 4.614-1.055 4.483-.264 2.505-.923 1.45-.132z" transform="matrix(.24263 0 0 .24335 -63.649 31.278)"/>
		<path fill="none" stroke-width=".794" d="M661.751 104.745l-14.15 5.858-6.45 15.664v4.937l26.787-.132.132-26.13M672.235 44.06h1.316v.132h21.856v-95.586h-23.304v-13.693h-3.555v25.279h3.424V-51h21.592v93.084h-21.33zM480.405-90.384h12.258v6.774M494.76-83.449v-24.999h64.029v24.999h2.258v-6.935h12.257v18.064h4.194v-37.257h-4.355v19.193h-12.257v-19.838h-68.223v21.128h.161M591.368-81.03h-2.903v-26.45h31.45v26.934h-15.16v1.613h15.483v37.256h-42.74v-37.579h13.87zM580.078-123.77h-6.774v-4.032h81.287v4.032z" transform="matrix(.24263 0 0 .24335 -63.649 31.278)"/>
		<path fill="none" stroke-width=".794" d="M579.917-123.125v12.903h25.967v-13.548h1.613v15.483h-29.838v.968" transform="matrix(.24263 0 0 .24335 -63.649 31.278)"/>
		<path fill="none" stroke-width=".794" d="M609.27-123.609v13.548h10.807v-13.87h2.741v43.063h21.451v1.935h-21.612v37.418h28.386v2.096H577.66V15.58h-4.516V-6.678h2.903v-42.579h-6.128v32.095h5.483v-38.062h2.097" transform="matrix(.24263 0 0 .24335 -63.649 31.278)"/>
		<path fill="none" stroke-width=".794" d="M588.143-39.419v6.452h11.45v-6.452h32.58v32.58h-31.934v-32.58h3.87v6.452h9.678v-6.774h4.677v6.451h10v-6.129h15.321v6.774H631.85v9.355h-5.806v-5.807h-21.29v6.29h-4.193M603.303-4.743V5.58H630.4v-10h-27.096zM638.624-81.191v-.645h.323v-15.967h-16.129M625.883-123.447v3.548h7.903v-4.032h6.774v14.515h17.257v28.386h10.967v-28.547h-11.128v30.805h14.193v-30.966h-3.387" transform="matrix(.24263 0 0 .24335 -63.649 31.278)"/>
		<path fill="none" stroke-width=".794" d="M642.979-121.834v10.806h23.225v-11.129h-23.225zM454.943 4.858h102.854V2.633h-45.352v-8.557h-2.396v-66.914h2.396v-6.332h19.168v-4.279h-23.788V2.975H475.65V-7.977h-2.396V2.804h-17.114v-7.359h16.943v-3.251" transform="matrix(.24263 0 0 .24335 -63.649 31.278)"/>
		<path fill="none" stroke-width=".794" d="M510.22-54.013h33.03v32.687h-33.03v-38.506h7.017v5.476h9.242v6.504h-5.306v20.707h5.134v5.99h-9.07v6.161h-7.359" transform="matrix(.24263 0 0 .24335 -63.649 31.278)"/>
		<path fill="none" stroke-width=".794" d="M512.103-50.59v10.268h4.279v-10.269zM511.932-35.873v10.61h4.45v-11.123h-4.45zM500.98-54.698v9.926h4.791v-10.782h-4.792zM500.98-40.493v10.097h4.278v-10.44h-4.279z" transform="matrix(.24263 0 0 .24335 -63.649 31.278)"/>
		<path fill="none" stroke-width=".794" d="M507.311-58.634h-32.687v32.003h32.516v7.187h-5.647v-6.845h-10.098v-5.476h4.792V-53.33h-4.45v-5.305h9.584v-6.845h6.161M456.141-56.923v27.896h13.007v-27.724H456.14zM532.982-6.095V.751h6.332v-7.53h-6.332zM407.196-123.837v10.268h27.21v-10.268zM398.468-83.449h4.963v-16.771h4.107v16.6h10.782v-14.204h-3.936v-13.007M398.297-78.828v5.134h5.305v3.936h7.872v-3.594h4.792v-5.99h2.738v-4.278M355.341-83.449v59.727h13.691v-59.727z" transform="matrix(.24263 0 0 .24335 -63.649 31.278)"/>
		<path fill="none" stroke-width=".794" d="M355.684-79h9.07v5.99h2.225v49.63" transform="matrix(.24263 0 0 .24335 -63.649 31.278)"/>
		<path fill="none" stroke-width=".794" d="M356.197-55.211h10.097v9.755h-10.097z" transform="matrix(.24263 0 0 .24335 -63.649 31.278)"/>
		<path fill="none" stroke-width=".794" d="M358.764-52.13v4.107h4.792v-4.108zM530.582 4.55v104.816h10.176v-4.274h-6.106v-2.036h9.362V95.73h-8.14v7.327h-.611V98.58h-2.036v-56.58h1.629V31.415h-4.274V43.83h-5.089v5.088h-3.867v21.167h4.071v4.07" transform="matrix(.24263 0 0 .24335 -63.649 31.278)"/>
		<path fill="#333" stroke-width=".611" d="M545.566 76.566c.147-.059.322-.052.39.016.067.067-.053.116-.267.107-.238-.01-.286-.058-.123-.123z" transform="matrix(.24263 0 0 .24335 -63.649 31.278)"/>
		<path fill="#333" stroke-width=".265" d="M530.493 76.96l-.052-32.718-2.188-.057-2.188-.058v5.102h-3.867v20.556h4.071v2.137c0 1.739-.056 2.137-.298 2.137-.233 0-.31-.382-.356-1.78l-.058-1.782-1.985-.058-1.984-.058V48.634l1.882-.059 1.883-.058.057-2.487.057-2.487 2.487-.058 2.487-.057.052-19.08.052-19.08h-37.653c-37.518 0-37.654-.003-37.654-.408 0-.406.136-.407 51.187-.407h51.187V3.03h-45.386V-5.52h-2.24v-13.127c0-12.992.005-13.127.408-13.127.396 0 .407.135.407 5.088v5.088h7.632c4.198 0 7.635-.023 7.638-.051.124-1.03.202-4.381.112-4.742-.125-.496-.14-.499-2.666-.499h-2.54v-2.442c0-2.307.023-2.442.407-2.442.381 0 .407.135.407 2.137v2.137h5.088v5.907l8.09-.054 8.09-.053.055-5.037c.046-4.291.1-5.037.356-5.037.26 0 .302.763.302 5.393v5.393h-6.157c-3.386 0-9.247.062-13.025.135l-6.87.135v6.04H510.598v8.344h2.443v8.547l22.642.051 22.642.052v2.85l-13.585.052-13.586.052v25.845h4.274v11.194H533.8v9.77c0 9.324.017 9.768.372 9.768.293 0 .354-.123.287-.577-.066-.453.051-.691.55-1.11l.633-.533 5.134.041c5.094.042 5.14.046 5.795.539.82.614.832.999.057 1.76-.605.593-.825 1.56-.413 1.814.255.157.274 5.084.022 5.56-.1.19-.123 1.879-.05 3.802.071 1.903.077 4.559.013 5.902-.064 1.344-.054 3.862.022 5.597.077 1.735.07 3.704-.014 4.376-.125 1.002-.084 1.36.232 1.99.49.977.488 1.604-.004 2.21-.384.476-.44.482-4.884.543-3.837.053-4.496.018-4.496-.236 0-.248.653-.309 3.962-.367 3.363-.059 4.013-.12 4.3-.408.223-.223.296-.51.214-.837-.107-.425-.28-.516-1.197-.626-.59-.07-2.321-.13-3.848-.13l-2.777-.003-.632-.59-.633-.591V63.749l-.518-.487c-.408-.384-.59-.44-.865-.267-.32.202-.35 1.25-.399 13.674l-.052 13.455.612.317c.745.385.766.602.103 1.037-.471.309-.546.309-1.018 0l-.508-.334V98.3l.966-.062.967-.062.06-1.374.06-1.374h8.733V103.365h-9.362V104.79h6.106v4.885h-10.786zm10.124 30.274v-1.73l-3.002-.057-3.002-.056v-1.296c0-.978.077-1.325.314-1.416.255-.098.302-.448.254-1.904l-.059-1.784-.966-.062-.967-.062V41.723l.763-.063.763-.063.055-4.936.054-4.935h-3.67V109.073l4.731-.055 4.732-.054zm3.257-7.836V96.14l-3.715-.055-3.714-.056V102.766l3.714-.055 3.715-.056zm1.078-9.026c.467-.133.467-.136.468-4.102v-3.968l-.875-.138c-1.195-.188-5.3-.196-5.581-.012-.15.099-.26 1.497-.321 4.087-.09 3.839-.082 3.942.33 4.109.493.2 5.29.218 5.978.024zM533.95 83.98c-.04-.7-.072-.127-.072 1.272 0 1.4.032 1.972.072 1.272.04-.7.04-1.845 0-2.544zm11.53-4.58c.145-1.413.14-4.268-.01-5.601l-.11-.972-3.287.056-3.287.056-.056 3.816-.055 3.816H545.36zm-.08-12.313l.102-4.223-2.951.003c-1.623.003-3.145.055-3.383.118-.402.108-.44.298-.574 2.82-.08 1.487-.079 3.36 0 4.16l.143 1.457 3.28-.056 3.281-.056zm-11.452.605c-.043-.473-.077-.035-.077.973.001 1.007.036 1.393.078.858s.042-1.359 0-1.831zm8.263-5.627l3.629-.015-.142-.661c-.078-.364-.168-.69-.2-.726-.03-.035-2.06-.118-4.508-.183l-4.452-.119-.539.488c-.526.477-1.04 1.593-.612 1.328.113-.07.407-.054.652.037.245.09.918.098 1.494.015.577-.082 2.682-.156 4.678-.164zm-25.1-80.204v-2.85h-6.514v5.7h6.513z" transform="matrix(.24263 0 0 .24335 -63.649 31.278)"/>
		<path fill="#333" stroke-width=".248" d="M671.301-12.587c-1.045-.225-1.403-.942-.932-1.87.114-.224.26-.638.326-.918.065-.28.152-.543.192-.583.043-.043.312-.035.649.021l.575.095 1.36-.43c.748-.235 1.64-.54 1.98-.676a10.28 10.28 0 0 1 1.26-.393c.644-.147.939-.322 1.053-.627.08-.213-.128-1.438-.345-2.025-.52-1.41-.651-1.85-.733-2.444-.06-.43-.17-.799-.32-1.07a3.937 3.937 0 0 1-.333-.904c-.185-.87-.647-1.129-1.486-.833-.191.068-.67.183-1.065.257-.394.074-.921.24-1.172.37-.492.255-1.277.45-2.184.54-.882.087-1.12.44-1.121 1.661 0 .327-.034.615-.075.64-.17.105-.415-.255-.5-.731-.117-.66-.32-1.049-.654-1.247a4.798 4.798 0 0 1-.566-.416c-.262-.228-.292-.3-.327-.786-.047-.651.104-1.205.388-1.416.26-.195 1.224-.362 1.351-.235.06.058.062.125.008.198l-.356.473c-.366.481-.332.893.104 1.293.344.316.476.328 1.012.095.22-.096.716-.241 1.102-.323.386-.083.895-.193 1.13-.246a2.88 2.88 0 0 0 .804-.343c.304-.201.53-.269 1.19-.355.671-.087.912-.16 1.365-.413.525-.294.599-.31 1.647-.383.603-.041 1.181-.095 1.284-.12.266-.063.306.11.19.826-.072.447-.074.697-.008.943.134.495.048.71-.346.865l-.335.132.045.767c.025.421.108.944.185 1.16.137.386.376.615.538.514.045-.027.082-.41.082-.85.003-.991.048-1.19.27-1.157.294.044.473.526.473 1.274 0 .765-.088.911-.496.83l-.248-.05v.558c0 .613.25 1.65.426 1.763.275.177.358.039.5-.839l.144-.887c.003-.011.039-.02.08-.02.114 0 .321.64.38 1.17.076.697.732 1.557 1.188 1.557.605 0 .835-.326.836-1.184 0-.325.025-.394.136-.372.075.015.214.132.31.26.16.214.174.339.17 1.488-.002 1.072-.024 1.288-.153 1.482-.083.125-.181.227-.218.227-.037 0-.147-.213-.245-.474-.22-.59-.263-.64-.734-.877-.836-.42-1.295-.355-2.092.294-.367.299-.563.389-1.104.508-.361.08-.994.274-1.406.431-.412.158-1.12.394-1.57.525a13.93 13.93 0 0 0-1.111.363c-.16.068-.583.185-.941.259-.784.162-.892.215-1.168.576-.309.405-.351.795-.126 1.16.221.358.479.434 1.01.297.543-.139.934-.142 1.095-.008.123.102.123.123-.003.262-.327.362-1.53.55-2.365.371zm6.082-12.221c.14-.524-.011-.844-.377-.792-.147.021-.197.088-.216.291-.05.505.474.946.593.5z" transform="matrix(.24263 0 0 .24335 -63.649 31.278)"/>
		<path fill="#333" stroke-width=".248" d="M671.36-12.306c-.028-.046-.125-.083-.215-.083s-.302-.07-.47-.157c-.8-.41-.95-1.02-.522-2.098.141-.353.256-.733.256-.844 0-.111-.113-.425-.251-.697-.156-.307-.295-.763-.366-1.205-.068-.42-.197-.851-.315-1.057-.183-.317-.465-1.385-.599-2.269a1.848 1.848 0 0 0-.248-.637c-.316-.466-.376-.608-.453-1.081-.115-.71-.286-.992-.695-1.148-.641-.245-.874-.689-.874-1.67 0-.858.309-1.341.97-1.511.194-.05.504-.13.69-.18.187-.048.516-.196.732-.33.4-.245 1.71-.573 2.294-.573.174 0 .49-.113.802-.288.306-.17.78-.343 1.168-.423.384-.08.757-.214.904-.326.333-.254 2.223-.648 2.813-.586.227.024.655.066.95.095.813.079 1.113.236 1.319.69.095.211.319.588.497.838.183.257.347.599.377.785.079.496.245 1.02.493 1.554.123.264.278.801.346 1.195.068.394.21.887.316 1.095.232.459.39 1.024.576 2.066.11.62.2.874.424 1.202.342.5.445 1.034.446 2.295 0 1.022-.073 1.235-.608 1.752-.188.182-.401.442-.473.579-.153.29-1.307.922-1.613.882-.106-.014-.37.056-.588.156-.218.099-.686.229-1.04.288-.355.06-.893.224-1.196.366-.35.164-.882.315-1.463.415-1.038.18-1.223.231-1.883.528-.816.367-2.364.604-2.501.382zm1.223-.167c.603-.088 1.165-.327 1.243-.53.128-.335-.522-.479-1.325-.294-.459.106-.746-.008-.89-.352-.15-.358-.081-.655.233-1.013.229-.26.369-.324 1.17-.534.5-.131 1.69-.499 2.644-.817.955-.318 1.978-.639 2.273-.713.367-.092.732-.269 1.152-.559.795-.549 1.223-.606 1.906-.255.405.207.483.292.712.77.14.296.304.538.363.538.366 0 .58-1.162.457-2.478-.05-.53-.097-.68-.287-.891-.335-.376-.468-.274-.522.404-.038.476-.079.591-.264.75-.121.105-.308.19-.415.19-.466 0-1.022-.806-1.198-1.735-.117-.62-.288-.993-.453-.993-.113 0-.153.122-.257.785-.1.635-.208.95-.326.95-.156 0-.363-.709-.428-1.467l-.05-.599h.239c.448-.003.487-.083.487-.983 0-.708-.024-.856-.174-1.056-.096-.129-.242-.247-.325-.263-.27-.053-.369.219-.37 1.016 0 .755-.07 1.024-.235.921-.143-.088-.325-.805-.388-1.523l-.057-.66.34-.174c.188-.096.345-.201.35-.234.003-.034.014-.593.022-1.244.017-1.307-.008-1.377-.459-1.301-.15.025-.703.08-1.226.123-.825.068-1.034.117-1.57.369-.398.187-.9.338-1.405.424-.534.091-.92.211-1.21.377-.263.15-.78.32-1.363.449-.517.113-1.21.3-1.542.413-.654.225-.739.212-1.088-.161-.303-.324-.268-.675.118-1.2.473-.645.274-.82-.719-.634-.69.13-1.048.795-.948 1.764.052.505.146.64.763 1.099.437.324.59.59.817 1.41.07.253.201.528.292.61.278.252.389.057.435-.764.065-1.136.243-1.35 1.222-1.467.719-.087 1.455-.274 1.966-.5.606-.269 2.802-.797 3.027-.728.315.095.461.3.637.893a6.8 6.8 0 0 0 .332.896c.087.171.232.679.322 1.128.09.45.33 1.286.533 1.857.203.572.415 1.362.472 1.754l.103.715-.227.195c-.126.108-.44.256-.7.33-.26.073-1.416.449-2.568.834l-2.096.7-.573-.097c-.675-.113-.77-.066-.9.446-.047.188-.2.638-.34 1-.533 1.382-.06 2.019 1.624 2.182.045.004.335-.028.644-.073zm.094-.987c.14-.043.477-.133.75-.2.272-.065.76-.23 1.082-.366a4.724 4.724 0 0 1 1.323-.326c.685-.073.864-.133 1.655-.548.142-.075.561-.174.93-.22.422-.053.816-.16 1.056-.289.211-.112.456-.204.545-.204.213 0 1.315-.33 1.447-.434.141-.112.13-.488-.027-.88-.158-.394-.559-.587-1.215-.586-.379.001-.506.051-1.033.404-.491.329-.748.436-1.405.587-.443.1-.953.25-1.135.33-.361.162-.885.334-1.653.544-.273.074-.775.24-1.116.369-.341.128-.766.257-.944.287-.549.09-.907.279-1.102.578-.23.356-.234.537-.014.815.184.235.424.274.856.139zm.159-2.933c.37-.11 1.024-.298 1.453-.416.429-.119.968-.31 1.198-.428.23-.116.67-.244.976-.283.592-.076.935-.242 1.014-.491.105-.33-.138-1.576-.43-2.208-.194-.42-.342-.927-.448-1.543-.114-.655-.239-1.072-.436-1.455-.152-.296-.303-.723-.336-.95-.071-.482-.233-.828-.42-.9-.201-.077-.525-.062-.702.033-.086.046-.464.141-.841.212-.377.07-.89.224-1.14.34-.545.255-1.671.584-2.356.688-.774.119-1.016.279-1.081.719a2.075 2.075 0 0 0 .347 1.562c.265.399.313.554.4 1.279.074.614.145.883.277 1.05.34.431.51.934.583 1.724.079.854.183 1.052.625 1.18.406.118.602.101 1.317-.113zm8.629-2.26c.205-.262.124-.752-.198-1.19-.25-.342-.325-.545-.444-1.212a8.9 8.9 0 0 0-.44-1.517c-.164-.394-.388-1.1-.5-1.569-.294-1.235-.708-2.231-.984-2.365-.163-.08-.264-.084-.388-.018-.145.078-.166.171-.166.727 0 .781.134 1.3.514 2.016.209.394.319.743.39 1.238.068.464.177.825.334 1.103.13.228.308.759.4 1.182.305 1.422 1.018 2.194 1.482 1.604zM669.18-24.82c.153-.063.78-.213 1.395-.334.835-.165 1.282-.302 1.777-.547.435-.215.774-.327.992-.327.467 0 .903-.127 1.57-.454.502-.247.688-.291 1.405-.335 1.148-.07 1.647-.217 1.773-.522.054-.13.087-.382.072-.558-.04-.49-.223-.543-1.549-.442-.903.069-1.179.122-1.603.313a9.766 9.766 0 0 1-1.214.419 14.99 14.99 0 0 0-1.942.653c-.227.092-.804.249-1.281.348-1.181.246-1.718.446-2.042.76-.384.373-.344.886.084 1.058.245.099.247.099.563-.032zM672.841 1.748c-.095-.038-.271-.187-.392-.331a1.027 1.027 0 0 0-.996-.36c-.356.058-.948-.198-1.199-.519-.529-.676-.962-1.454-1.146-2.058-.11-.363-.31-.831-.442-1.04-.317-.5-.326-.985-.026-1.427.118-.173.321-.659.453-1.08.131-.42.312-.83.402-.912.09-.08.226-.338.301-.572.076-.233.215-.509.31-.612.453-.498 2.847-1.506 3.576-1.506.464 0 2.055.453 2.43.693.16.101.42.234.58.296.495.191.798.474 1.128 1.054.408.718.428.772.581 1.51.07.34.236.807.367 1.039.307.544.32 1.035.037 1.451-.19.28-.375.868-.5 1.599-.084.484-.322.894-.79 1.362-.504.504-.722.624-1.344.74-.279.05-.626.19-.836.335a2.557 2.557 0 0 1-.721.33c-.434.1-1.533.105-1.773.008zm1.851-.99c.15-.043.4-.19.556-.327.166-.145.52-.319.857-.42.703-.209.928-.447 1.162-1.233.093-.31.168-.61.168-.668 0-.057.13-.318.29-.58.37-.61.372-.913.01-1.635-.157-.312-.304-.755-.335-1.01-.095-.77-.256-1.035-.866-1.418-.3-.188-.677-.445-.838-.572-.32-.25-1.342-.492-2.051-.487-.58.004-1.412.208-1.655.404-.12.097-.403.3-.63.453-.77.516-1.08.967-1.331 1.93-.063.24-.207.62-.321.846-.276.543-.262.835.07 1.484.152.298.301.667.33.82.03.153.225.554.436.892.379.608.7.855 1.107.855.08 0 .364.117.63.259.835.446 1.742.599 2.411.407zM676.36 21.612c-.113-.021-.466-.144-.785-.273a4.53 4.53 0 0 0-1.24-.292c-.803-.072-1.152-.208-1.495-.583l-.263-.286h-.866c-.826 0-.893-.014-1.45-.292-.666-.333-1.183-.496-1.835-.578-.617-.077-1.179-.329-1.399-.627-.24-.324-.377-1.007-.303-1.503.073-.482.391-.874.965-1.186.419-.228.57-.5.57-1.032 0-.304.225-.903.412-1.103.159-.169.202-.31.5-1.643.09-.403.239-.836.33-.963.09-.127.204-.43.254-.673.208-1.017.261-1.207.456-1.622.244-.519.396-1.274.334-1.655-.024-.151-.162-.409-.305-.572-.232-.264-.255-.335-.207-.636.03-.186.143-.535.253-.775.172-.377.258-.463.636-.64.62-.288 1.156-.275 1.618.038.286.193.476.25.992.292 1.084.088 1.23.128 1.664.451.37.276.509.325 1.184.417.534.073.907.177 1.232.346.274.142.855.323 1.406.438 1 .209 1.347.317 1.426.445.027.043.24.148.475.232.527.19 1.424 1.12 1.579 1.64.054.182.097.76.094 1.282-.005.918-.02.993-.424 2.19-.23.682-.463 1.464-.517 1.736a3.088 3.088 0 0 1-.341.879c-.243.383-.322.699-.484 1.926-.066.494-.16.787-.386 1.19a4.906 4.906 0 0 0-.437 1.17c-.118.54-.211.734-.63 1.3-.676.913-.782.968-1.896.986-.5.008-1.003-.003-1.116-.024zm1.712-.736c.115-.075.24-.314.342-.654.107-.354.27-.66.48-.9.385-.436.667-1.13 1.063-2.617.162-.612.387-1.268.498-1.457.12-.204.237-.588.286-.934a5.26 5.26 0 0 1 .29-1.08c.113-.27.206-.563.206-.652 0-.088.093-.272.207-.407.269-.319.285-.884.035-1.202-.225-.287-.365-.275-.88.072-.513.345-.564.43-.638 1.074-.09.772-.195 1.086-.416 1.23-.298.196-.345.171-.448-.24-.088-.35-.384-.766-.477-.673-.11.11-.173.674-.099.87.097.255.212.34.464.34.171.002.186.04.186.483 0 .264-.04.701-.09.971-.09.5-.382 1.193-.501 1.193-.17 0-.3.524-.342 1.382-.026.51-.097 1.03-.157 1.157-.108.226-.126.23-.91.254-.743.022-.855.003-1.53-.257-.4-.155-.937-.307-1.194-.339-.257-.032-.734-.185-1.06-.341a5.013 5.013 0 0 0-1.129-.37c-.998-.16-1.64-.34-2.262-.638-.78-.373-1.391-.448-1.638-.202-.217.217-.315.838-.175 1.101.142.267.308.383.697.49.182.05.587.22.9.38.441.223.734.305 1.313.37.708.079 1.2.224 1.755.518.136.072.346.131.466.131.44.001 1.53.271 2.013.498.583.275.975.403 1.654.542.54.11.81.088 1.09-.093zm-2.409-3.38c.185-.121.284-.443.284-.92 0-.154.13-.522.293-.837.204-.39.329-.782.41-1.284.069-.433.196-.863.317-1.074.111-.194.248-.557.305-.807.056-.25.192-.696.301-.99.262-.705.263-.969.004-1.379-.303-.481-.567-.658-1.068-.72-.72-.088-1.718-.37-2.25-.635a4.044 4.044 0 0 0-1.042-.327c-.299-.042-.679-.134-.844-.203-.276-.115-.33-.113-.658.027a3.002 3.002 0 0 0-.624.379c-.26.219-.268.243-.268.878 0 .7-.118 1.1-.505 1.713a2.01 2.01 0 0 0-.28.868c-.088.813-.261 1.38-.539 1.766-.308.429-.48 1.197-.36 1.613.085.299.478.553.866.56.119.002.42.113.67.246.308.165.765.298 1.437.42.54.098 1.245.286 1.564.419 1.205.5 1.58.554 1.987.287zm2.433-1.538c0-.131-.191-.491-.26-.491-.08 0-.097.524-.02.6.064.065.28-.02.28-.11zm2.274-5.971c.09.004.325.019.521.033.398.03.46-.025.602-.541.14-.505.02-.78-.464-1.062a4.255 4.255 0 0 1-.63-.445c-.166-.158-.357-.223-.812-.28-.833-.105-1.143-.201-1.615-.5-.331-.21-.564-.28-1.204-.364-.745-.097-1.16-.238-1.784-.603-.144-.084-.59-.197-.992-.252-.402-.055-.898-.159-1.103-.23-.67-.234-.846-.232-1.074.011-.156.166-.207.31-.207.582 0 .308.047.41.324.693.255.261.422.352.785.426a8.278 8.278 0 0 1 1.825.588c.349.157.784.27 1.24.324.553.065.837.15 1.332.405.346.177.885.385 1.198.462.727.179.977.307 1.206.616.16.216.218.241.435.19a1.89 1.89 0 0 1 .417-.053zM687.819 7.625a.869.869 0 0 1-.169-.908c.087-.207.229-.317.651-.507.64-.287.668-.388.302-1.112-.232-.46-.25-.704-.07-.935.147-.188.442-.108 1.02.275.596.395.706.413 1.454.236.296-.07.645.264.645.62 0 .65-.471 1.08-1.184 1.08-.582 0-1.216.175-1.336.368-.059.093-.13.308-.16.477-.031.178-.13.361-.234.434-.253.177-.747.162-.919-.028z" transform="matrix(.24263 0 0 .24335 -63.649 31.278)"/>
		<path fill="#333" stroke-width=".248" d="M688.252 4.721c-.027-.068.003-.328.067-.579.084-.324.093-.507.033-.64-.114-.249-.06-.353.353-.699.473-.395.608-.801.48-1.44-.134-.663-.12-.964.075-1.616.093-.314.148-.638.122-.72-.026-.082-.234-.27-.462-.418-.592-.383-.656-.513-.635-1.29.016-.596-.007-.706-.25-1.187-.147-.291-.268-.614-.268-.717 0-.22.202-.447.399-.448.395 0 .751-.18.917-.46.25-.425.22-.706-.117-1.11-.325-.388-.376-.75-.164-1.16.187-.361.546-.512 1.14-.48.477.027.505.018.555-.178.1-.395-.062-.649-.499-.778-.601-.179-.765-.322-1.249-1.093a20.712 20.712 0 0 0-.95-1.42c-.224-.306-.166-.68.15-.963.257-.23.271-.272.243-.703-.046-.699-.04-.826.069-1.44.268-1.506.744-2.162 1.136-1.564.219.334.174 1.148-.095 1.717-.294.62-.285.994.027 1.156.132.068.401.148.6.178.48.072.828.293 1.092.692.26.392.277.687.055.91-.238.237-.492.273-.901.129-.658-.232-.839-.156-.836.354.003.308.074.393.468.55.198.08.48.298.661.51.174.206.435.423.58.484.637.268.98 1.742.522 2.232a1.625 1.625 0 0 1-.464.328c-.225.094-.263.159-.311.52-.042.316-.13.497-.373.774a2.294 2.294 0 0 0-.45.822c-.074.253-.215.532-.313.62-.223.198-.404.615-.404.93 0 .307.26.636.666.843.426.217.67.205.905-.044.106-.113.28-.206.386-.206.299 0 .268.435-.048.668-.148.11-.277.311-.338.529-.13.461.056 1.22.457 1.873.158.257.287.527.287.6 0 .177-.236.166-.525-.024-.3-.198-.484-.148-.655.182-.266.511-.261.678.036 1.274.154.308.267.644.25.748-.036.243-.336.436-.818.526-.212.04-.474.13-.583.202-.194.127-.195.134-.047.303.148.168.147.17-.014.105-.317-.13-.681-.145-.752-.03-.038.06-.09.26-.115.441-.026.191-.067.279-.095.207zM695.794 8.048c-.007-31.928.006-35.976.115-35.976.11 0 .124.834.124 7.013v7.014l.189.28c.293.435.782.432 1.008-.005.172-.333.158-.609-.055-1.019-.235-.454-.269-1.544-.054-1.76.204-.205.503-.091.768.291.298.43.42 1.488.4 3.496-.012 1.182-.042 1.523-.154 1.76-.156.327-.668.802-1.115 1.032-.543.28-.822.608-.82.962 0 .175.03.366.067.423.037.058.314.135.617.171.68.082.885.243.885.693 0 .178-.043.403-.094.5-.052.097-.098.367-.1.6-.006.362.034.477.268.772.4.505.488.9.497 2.224.008 1.13.003 1.17-.202 1.412-.12.143-.38.306-.613.383-.324.107-.422.185-.494.39-.15.432-.105.904.128 1.342.312.586.348.772.267 1.364-.083.61.006.818.465 1.09.69.406.657 1.44-.054 1.73-.151.06-.318.168-.37.238-.137.18.063.533.375.662.31.13.346.214.459 1.12.126 1.016.073 1.248-.41 1.809-.536.62-.715.734-.992.629-.572-.218-.866-.003-.866.633 0 .79.435 1.693 1.213 2.523.36.384.44.522.44.76 0 .428-.138.663-.536.915-.402.254-.473.453-.378 1.062.06.379.045.421-.318.95l-.38.555-.044 13.68c-.032 9.657-.072 13.765-.137 13.97-.067.212-.093-9.255-.1-35.688zm.134 5.747c-.017-.195-.032-.056-.032.308 0 .363.014.522.032.353.017-.17.018-.467 0-.661zm-.003-.869c-.02-.08-.04-.034-.04.102-.004.137.014.202.037.146a.47.47 0 0 0 .003-.248zm.191-1.385a.424.424 0 0 0-.124-.29c-.108-.09-.124-.035-.123.424 0 .518.003.523.124.29.067-.13.123-.321.123-.424zm1.006-4.093c.076-.092.179-.358.229-.591.078-.365.072-.446-.047-.578-.191-.21-.468-.191-.758.052-.447.376-.538.916-.21 1.244.174.174.592.106.786-.127zM696.03 5.21c-.132-.246-.162-.193-.159.276l.003.434.12-.276c.087-.2.096-.32.035-.434zm.982-.986c.086-.584-.274-1.396-.57-1.283-.182.07-.409.484-.409.747 0 .282.225.666.448.767.24.108.498-.005.531-.231zm.799-.908c.028-.046-.007-.083-.078-.083s-.13.037-.13.083c0 .045.036.083.079.083.042 0 .1-.038.129-.083zm-1.203-1.854c.145-.176.077-.66-.098-.693-.213-.04-.365.337-.244.604.107.235.2.26.342.088zM695.95-1.9c-.045-.19-.065.038-.063.71l.003.992.063-.71c.035-.391.034-.838-.003-.992zm.922-.922c.496-.401.515-.93.081-2.17-.251-.719-.35-.91-.472-.91-.55 0-.604 2.653-.062 3.064.189.143.292.146.453.016zm-.947-4.877c-.02-.102-.035-.019-.035.186 0 .204.016.288.035.186.02-.102.02-.27 0-.372zm-.003-2.557c-.026-.066-.046-.047-.05.05-.004.087.016.136.044.108.027-.027.03-.099.007-.158zM697.22-11c.12-.192-.022-.568-.245-.65-.424-.155-.778.345-.477.677.177.196.592.18.722-.027zm-1.19-1.513a.628.628 0 0 0-.08-.29c-.057-.088-.08-.007-.08.29s.023.378.08.29a.627.627 0 0 0 .08-.29zM689.427 8.719c-.231-.294-.22-.574.032-.739.28-.183 1.468-.263 1.742-.116.378.202.255.379-.51.738-.84.393-1.033.41-1.265.117z" transform="matrix(.24263 0 0 .24335 -63.649 31.278)"/>
		<path fill="#333" stroke-width=".248" d="M672.641 41.683c-.054-.018-.08-1.88-.074-5.414.005-3.04.038-5.26.077-5.098.037.16.072 2.555.076 5.323.005 2.768.028 5.065.052 5.104.024.039.522.07 1.105.07.931 0 1.069-.017 1.124-.144.09-.208.043-.441-.134-.667-.238-.303-.292-.732-.115-.927.177-.196.387-.202 1.195-.032.707.15 1.257.108 1.809-.136.537-.237.857-.209 1.22.11.277.242.355.267.809.26.426-.006.559-.047.88-.274.217-.154.528-.288.728-.314.292-.04.385-.014.572.154.425.384.525.432.87.413.358-.02.997-.22 1.213-.381.234-.175.75-.376.964-.376.22 0 .772.293.772.41 0 .036.117.123.26.192.237.115.291.114.559-.007.163-.073.392-.219.51-.324.467-.42 1.219-.401 1.566.04.145.185.166.289.121.597-.03.205-.088.409-.13.452-.153.158-.079.547.144.753l.22.204 2.033-.022 2.032-.022.023-12.274c.02-11.131.01-12.315-.111-12.709-.074-.238-.177-.44-.23-.448a35.637 35.637 0 0 0-1.308-.02c-1.094-.006-1.234-.024-1.444-.18-.29-.215-.348-.45-.253-1.004.066-.39.053-.47-.134-.786a3.948 3.948 0 0 0-.545-.678c-.434-.42-.46-.788-.09-1.298.137-.189.25-.42.251-.516.006-.345.56-1.035 1.154-1.44.783-.531.922-.69.97-1.111l.044-.392h-.261c-.144 0-.482.112-.753.248-.27.136-.557.248-.638.248-.29 0-.665-.31-.77-.634-.145-.452-.225-.523-.588-.523-.178 0-.45-.053-.605-.118-.236-.098-.302-.188-.41-.55-.213-.718-.019-1.164.624-1.432.46-.192.495-.278.32-.773-.201-.574-.046-.556.22.024.245.536.217.602-.394.911-.47.238-.652.474-.652.844 0 .326.188.722.376.795.335.128.887.008 1.051-.23.035-.05.105-.253.157-.452.115-.44.337-.554 1.29-.66.746-.084 1.064-.251 1.23-.646.18-.435.142-.754-.126-1.022-.229-.229-.26-.236-.819-.189-.508.043-.619.026-.88-.136-.296-.183-.584-.596-.484-.695.077-.077.206-.063.156.017-.068.11.185.416.464.56.2.103.384.12.847.077.516-.049.617-.035.793.108.184.149.202.223.202.83 0 .641-.01.678-.266.933-.25.25-.312.27-.996.312-.897.056-1.176.202-1.176.617 0 .35.098.388.757.293.288-.042.71-.053.937-.024.35.045.47.111.786.434.204.209.533.49.73.623.349.236.363.239.455.082.071-.12.106-4.835.137-18.387.03-12.727.042-7.715.042 16.614v34.84h-10.229c-5.626 0-10.266-.012-10.311-.028zm20.366-26.586c.115-.175.133-.536.133-2.634 0-2.01-.02-2.449-.118-2.53-.097-.08-.24.024-.786.569-.366.366-.7.666-.741.666-.1 0-.256.463-.256.76 0 .133-.063.36-.14.505-.108.207-.137.476-.132 1.246.008 1.196.05 1.261.85 1.334.297.027.592.103.659.169.18.177.38.145.53-.085zm-2.181-6.467c.703-.356.826-.573.458-.814-.171-.112-.346-.132-.893-.1-1.059.061-1.376.31-1.134.894.21.506.596.511 1.569.02zM651.416-40.368c.01-.761.028-1.02.044-.61l.027.713.307.05c.514.086 15.856.061 16.083-.025a.41.41 0 0 0 .242-.269c.02-.104.041.098.047.45l.012.641 2.004.007c1.256.004 1.916.034 1.768.078-.13.04-4.778.074-10.329.077-7.89.005-10.105.029-10.156.108-.035.056-.057-.493-.049-1.22zM637.001-35.46c-.174-.097-.246-.43-.149-.685.103-.272.398-.341.777-.183.323.135.4.387.197.649-.134.173-.659.312-.825.22zM594.113-35.556c-.538-.362-.372-.688.455-.894.366-.091.415-.086.516.052.133.181.147.646.026.87-.122.228-.637.214-.997-.028z" transform="matrix(.24263 0 0 .24335 -63.649 31.278)"/>
		<path fill="#333" stroke-width=".752" d="M661.132-89.912c-1.476-.795-1.833-1.531-2.004-4.135-.144-2.196-.11-2.458.498-3.742.845-1.785 1.552-2.114 3.874-1.8 1.586.215 1.703.278 2.427 1.312.708 1.01.767 1.265.842 3.634l.08 2.549-1.017 1.052c-1.473 1.523-3.2 1.939-4.7 1.13zm2.387-1.943c.417-.53.502-1.016.502-2.878 0-2.106-.039-2.271-.643-2.746-1.006-.791-1.465-.643-2.117.685-.73 1.485-.717 3.07.037 4.515.658 1.262 1.444 1.412 2.221.424zm2.292-2.23c0-.198-.113-.43-.25-.516-.138-.085-.251.078-.251.361 0 .284.113.516.25.516.138 0 .251-.162.251-.36zm-.257-1.75c-.332-.332-.539-.049-.34.467.13.34.21.362.371.101.113-.183.1-.438-.03-.568zM580.813-89.267l-1.268-1.308.094-2.389c.084-2.141.17-2.5.82-3.457.837-1.23 2.077-1.709 3.75-1.448 1.375.215 2.09.868 2.528 2.311.79 2.608.318 5.517-1.101 6.775-.774.686-1.105.807-2.232.815-1.272.009-1.374-.042-2.591-1.299zm2.82-.196c.828 0 1.578-.95 2.09-2.649.322-1.072.31-1.278-.154-2.456-.87-2.215-1.837-2.745-2.913-1.6-.74.788-.913 4.647-.243 5.388.474.523.584 1.317.184 1.317-.138 0-.25.136-.25.301 0 .234.066.234.3 0 .165-.165.609-.3.985-.3zm-2.585-2.964c.051-.35-.053-.545-.293-.545-.42 0-.65.465-.472.95.178.482.673.22.765-.405zm.234-1.735c.15-.454-.697-.707-.962-.287-.122.192-.224.442-.226.555-.006.324 1.073.08 1.188-.268zM551.713-7.812c-.931-.084-.823.79-.452 1.356.156.8 1.006 1.193.93 2.064.417.883 1.218 2.227.061 2.933-1.476.762-3.063 1.437-4.67 1.845-1.552.038-1.477-2.086-2.2-2.995-.342-1.017-1.625-2.314-.596-3.309.34-.934-.501.302-.608.576-.65 1.061-1.456 2.14-.402 3.259.518 1.049.99 2.655 2.447 2.555.595.277.897 1.084.81 1.615.641.056 1.693.348 1.906-.398 1.07-.368 2.235-.543 3.214-1.215.721-.486 2.47-.995 1.773-2.168-.677-1.202.73-2.526-.264-3.663-.578-.723-.822-2.418-1.949-2.455z" transform="matrix(.24263 0 0 .24335 -63.649 31.278)"/>
		<path fill="#333" stroke-width=".752" d="M549.427-8.847c-1.623.446-3.282 1.19-4.59 2.255.623.35 1.649-.254 2.323-.505.901-.585 2.185-.762 2.932-1.462-.088-.267-.426-.306-.665-.288zM522.677-8.077c-1.102.171-1.865 1.283-2.932 1.593-.733 1.327-1.476 3.01-1.009 4.54.491.554 1.072 1.222.54 1.986-.522 1.24.995 1.77 1.93 1.734.629.062 1.758.203 2.107.046-1.163-.475-3.093.11-3.67-1.315.014-.842 1.054-1.843 1.55-.694 1.058.647 2.539.129 3.596.917.645.28 2.131-.593 2.02.633-.04.763.332.547.378.02.553-1.078 2.162-1.2 2.282-2.565.287-1.185 1.04-2.615-.075-3.6-.685-.791-.824-1.99-1.97-2.31-1.448-.756-3.152-.862-4.747-.985zm3.152.72c.906-.178.617.885-.097.706-.719-.118-.69-.784.097-.705zm-2.493.453c1.094.054 2.153.524 3.242.374 1.578.923.866 3.188.517 4.597-.266.954-.608 2.64-1.98 2.232-1.217-.588-2.84.02-3.854-.942-.705-1.742.027-3.732.256-5.52.325-.634 1.192-.725 1.819-.74zm4.728.555c.54.626.71 1.598 1.272 2.266.328 1.161.104 2.566-.46 3.609-.737.283-1.453.975-2.1 1.084.306-1.957 1.38-3.787 1-5.829.065-.313-.137-1.02.288-1.13zm-7.379.011c.794.34.067 1.633.19 2.278-.209.72-.008 2.474-1.137 2.361-1.26-.333-.828-1.715-.513-2.6.267-.767.324-2.143 1.46-2.039z" transform="matrix(.24263 0 0 .24335 -63.649 31.278)"/>
		<path fill="#333" stroke-width=".752" d="M528.31-4.618c-.047 1.494-.695 3.222-.872 4.493 1.907-.766 2.082-3.425.874-4.873l-.002.25zM520.45-5.89c-.812.92-1.203 2.368-1.06 3.583.85.716.984-.858 1.019-1.416.018-.685.32-1.545.04-2.167zM520.495-.225c-.9.427-.048 1.361.673 1.321.752.177 2.339-.14 2.456.884.038.324 1.132.112 1.54.183.43-.073 1.776.247 1.23-.604-.278-.818-1.67-.406-2.353-.7-1.233-.189-2.515-.382-3.546-1.084zM598.474 96.017c-.273.515-.35 1.361-1.162 1.227-.874-.226-1.944.6-1.947 1.291 3.1.118 6.258.313 9.338-.044.414-.927-1.193-.823-1.723-.851-1.432-.22-3.337.435-4.48-.67-.183-.288-.016-.785-.026-.953zM583.503 99.381c-.695.429-.073 1.77-.265 2.46.116.911-.132 2.121-.006 2.885 8.861.393 17.812.145 26.706.175 1.499-.137 3.286.182 4.636-.315-.806-.49-2.118-.076-3.072-.216-2.73-.096-5.543.272-8.23-.222-.684-.28-.574-1.216.097-1.416.386-.703.118-1.147-.4-.372-1.476.829-3.347.06-4.96.214-.777-.11-1.574-.14-.805.665.6 1.06-1.184 1.014-1.793 1.04-3.92.045-7.942.116-11.792-.114-.075-1.535-.21-3.375.206-4.77-.106-.02-.215-.016-.322-.014zM663.265 86.651c-3.57.402-5.112 5.405-3.139 8.14.863 1.305 2.489 2.783 4.116 1.799 1.956-.948 3.434-3.013 2.903-5.261-.243-1.522-.87-3.49-2.515-3.928-.534.204-1.638.832-.782 1.39.76 1.041.073 2.48-.991 3.003 1.484.513 1.701 2.555.525 3.464-1.275.411-2.045-1.253-2.422-2.212-.502-1.161-.162-2.389.46-3.403.188-1.222 1.615-1.756 2.481-2.466.764-.149-.332-.694-.636-.526zm-.595.557c.553.393-.643.664-.868.964-.533.152-.57 1.65-1.145 1.102-.522-1.152 1.165-1.876 2.013-2.066zm1.81.968c.613.112.46 1.675-.081.802-.086-.206-.284-.76.082-.802zm.87 1.993c1.548.06 1.302 2.062.96 3.04-.37.507-1.235.702-1.32-.127-.09-.907-.387-2.149.203-2.903a.5.5 0 0 1 .157-.01zm-5.553.482c.533.835.526 2.117.427 3.083-.928-.077-.729-1.542-.776-2.224.054-.245-.03-.84.35-.86zm4.369.595c.639.209-.032 1.38-.343.522-.093-.228.092-.528.343-.522zm-3.504 2.485c.587.102 1.078 1.052.169.876-.37-.027-.598-.808-.17-.876zm4.157 1.427c1.134.517-.91 1.082-.201.056a.35.35 0 0 1 .2-.056zm-2.026.783c.941.199-.593.776-.47.141a.7.7 0 0 1 .47-.141zM581.165 34.975c-2.514.088-5.071-.042-7.553.357-.54.754-.94-.671-1.662-.337-.844.011-2.198-.16-2.123 1.064-.321 1.037-.968-.039-1.092-.553-.565-.537-1.57-.333-1.708.489-.623.555-1.552 1.284-1.002 2.238.457.977 1.853 2.43 2.904 1.332.227-.407 1.328-1.299 1.21-.248-.425 1.383 1.434.852 2.165.95 1.296.106.383-1.965.66-2.901-.046-.295.065-1.79.474-.982.388 4.513-.112 9.098.415 13.591 1.202.523 2.767.203 4.101.243-.366-.11-1.818.178-2.591-.118-.869-.66.816-1.305.857-1.988.45-.506 1.204-.75 1.409-1.507.138-.336.65-.41.775-.07.04-.652.105-1.299-.408-.423-1.296.986-2.364 2.244-3.327 3.525-1.129.365-.849-1.385-.919-2.006.023-4.073-.075-8.248.177-12.252 1.126.28 3.902-1.06 3.376.965.142 1.37-.477 2.981.129 4.25.92.777 2.08-.198 3.138.083 2.29-.113 4.604.129 6.87.192.636-.194 1.411-.811.738-1.464-.477-.972.064-2.004.195-2.913-.43-.206-.899-.937-.155-1.073 1.256-.133 2.771-.454 3.923.116.273.744-.624 1.325-.162 2.12.335.843-.188 1.87.165 2.63 3.531.22 7.161.144 10.687-.013.421-1.541-.258-3.305.269-4.786.718-.343 1.693-.297 2.394-.127-.116 4.635.233 9.305-.19 13.92-.044.421-1.124.921-.243.67.77-1.718.302-3.794.494-5.644.128-2.718-.098-5.557.362-8.207.622.549.16 1.871.34 2.659.008 1.095.132.952.139-.058.315-1.032-.677-3.175.613-3.352.626-.012 2.278-.44 1.97.752-.313.893-.65 1.844-.073 2.73.308.318-.04 1.623.616 1.016.054-.42-.935-1.179.044-1.065.725.283 1.142 1.663 2.107 1.069.492-.125 1.255-1.565 1.738-.828-.056.326-.23 1.316.276.891-.07-1.052 1.44-1.927.595-3.025-.276-.413-1.091-1.553-.062-1.573.784-.073 3.018-.077 1.086-.305-.661-.007-2.404-.243-1.897.938.318.77-.69 1.07-.91.3-.106-.847-1.002-1.41-1.73-.788-.536.318-.88 1.861-1.606 1.342-.163-.58.48-1.717-.526-1.754-.857-.061-1.999-.273-2.627.31-1.177-.61-2.518-.36-3.723-.018-3.198-.531-6.462.513-9.647.08-2.195-.634-4.612-.277-6.888-.442a263.62 263.62 0 0 0-4.587-.003zm-9.902.307c1.937-.476 1.549 1.376 1.521 2.709.233 1.375.036 2.558-1.583 2.2-.726.18-1.21-.633-.62-1.14.991-.906.559-2.263-.261-3.07-.203-.568.545-.724.943-.7zm12.328.077c1.115.162 2.582-.226 3.529.401-.848.624-2.264.217-3.288.407-1.735-.102-3.625.321-5.281-.211-.006-.668 1.21-.363 1.67-.513a50.841 50.841 0 0 1 3.37-.084zm-15.566.395c.806.026.796 1.205 1.674 1.194.907.356.377 2.074-.604 1.402-.555-.452-.345-1.577-1.353-1.437-.538-.248-.335-1.195.283-1.16zm43.537.025c.683.135.638 1.172 1.42 1.272.894.368.412 1.438-.365 1.584-.454.45-.737 1.375-1.584 1.06-.745-.288-.865-1.248-1.627-1.569-.227-.921 1.009-1.577 1.563-2.143.178-.11.38-.209.593-.204zm-17.885.262c2.598-.024 5.23.686 7.783.049.913.486.604 1.976.656 2.853-.244.956-1.727.34-2.421.583-2.172-.037-4.443.223-6.56-.217-.235-.412.038-1.984-.415-1.022-.846.426-.393-1.734.198-.784-.052-.566-.139-1.625.759-1.462zm-10.94.716c1.395.156 3.055-.285 4.312.376.13 1.018.46 2.21.25 3.146-2.951-.55-6.037-.298-9.002-.164-.776-.892-.083-2.447.32-3.358h4.12zm-15.67.027c.8.239-.324 1.833.855 1.631.858-.269 1.553.41.746 1.054-1.045.746-2.292-.737-2.437-1.743-.077-.517.297-.98.836-.942zm3.597.302c.584.183.52 1.546-.147 1.196-.042-.321-.251-1.076.147-1.196zm45.562.657c-.036.417-.005 2.528.037 1.24.017-.427-.01-2.64-.037-1.24zm-48.15-.422c.982.305-.476 1.515-.59.514.06-.267.298-.528.59-.514zM492.703 35.798c-.288 1.66 2.251.43 3.267.758 1.37.157 3.092-.4 4.256.479.474 1.407.135 2.962.26 4.425.046-2.165.019-4.331.026-6.496h-7.809v.834zM501.379 32.711c-.668.06.362.814.706.68.467.08 1.026.004.4-.388-.32-.22-.719-.324-1.106-.292zM490.903 32.736c-1.536.046-1.042 2.124-1.195 3.15.077 2.734-.233 5.567.24 8.24.603.024 1.97.418 1.93-.383-.621.5-1.91.763-1.945-.386-.288-3.085-.336-6.242.037-9.32.056-.88.976-.679 1.507-.699-.054-.354.534-.724-.136-.602-.146.003-.292-.007-.438 0zm1.052 1.627c-.141 2.245-.03 4.496-.014 6.743.032-2.288.172-4.582.028-6.868zM489.26 134.223c-1.014.111-2.262-.161-3.163.266.908.233 2.075-.313 3.07-.178 1.544.099 3.324-.394 4.737.308.16.453.623.465.142.024-.48-.678.795-.305.604.263.223 1.77.126 3.566.203 5.347-.956-.7-1.167-2.779-2.692-3.156-1.215-1.106-3.223-.703-4.071.677-.812.746-1.453 1.691-1.632 2.775-.542-.332-.124-1.492-.287-2.09.034-.947-.134-2.281.288-3.03-.6-.147-.207 1.157-.353 1.496.168 2.88-.51 6.082 1.001 8.692 1.126 1.723 3.952 2.947 5.548 1.178.766-.509 1.251-1.447 1.92-1.978.525 1.25.081 2.852.215 4.212-.28 1.246.471 3.368-.404 4.117-2.73-.037-5.567.205-8.23-.003-.805-.668 1.57.735 2.949.164h5.8v-19.089c-1.88.003-3.763-.003-5.645.003zm.649 2.793c.751-.176.84.521.36.95-1.276 1.378-2.51 3.2-1.992 5.167.301 1.155.756 2.731 2.158 2.823.69.133 1.665 1.382.492 1.548-2.233-.102-4.252-2.198-4.08-4.488-.207-1.732-.087-3.681 1.398-4.855.467-.457.968-1.076 1.664-1.145zm2.447.805c1.033.362 1.477 1.74 1.748 2.714-.12.849-1.517-.295-1.387.76.123.75-.133 1.904.442 2.428.826-.36 1.16.67.646 1.205-.386.7-1.168 2.052-2.107 1.69.025-.72-1.483-1.17-.315-1.72.585-1.5.316-3.269.225-4.857-.102-.633-1.424-1.332-.552-1.903.4-.193.857-.298 1.3-.317zm-2.19 1.296c.952.076 1.678 1.762.857 2.301-.66-.29-1.698.255-1.185 1.03.06 1.06 1.523-.036 1.51.985.142.713-.108 1.414-.865 1.534-.51.765-1.15.057-1.276-.583-.267-.85-1.065-2.022-.513-2.845.201-.156-.043-.852.298-1.136.274-.461.529-1.272 1.175-1.286zm.344 2.661c1.029.241-.587 1.539-.34.31.04-.155.165-.317.34-.31zM402.574 121.032c-1.012 0-1.03 1.34-1.73 1.867-.818.766-.974 1.809-.487 2.813.385 1.843 1.754 3.79 3.74 3.951.981-.261 2.274.214 3.109-.405.117-.71.742-1.104 1.222-1.466-.696-.196-1.25.815-2.056.71-1.66.634-3.446-.059-4.57-1.335-.773-1.227-1.206-3.04.089-4.103.267-.656 2.387-1.825 1.147-2.002a2.046 2.046 0 0 0-.464-.03z" transform="matrix(.24263 0 0 .24335 -63.649 31.278)"/>
		<path fill="#333" stroke-width=".752" d="M406.896 118.683c-1.123.227-2.091.994-2.883 1.735-.343.157-1.167.179-.438.477.531.227-.238 1.358.456.78.998-.477 1.907-1.719 3.07-1.639 1.339 1.369 2.307 3.125 3.225 4.804.214 1.023-1.248 1.527-1.884 2.097-.206.11-1.435.574-.627.42.476-.2 1.355.148 1.214.574 1.311-.598 2.878-1.72 2.353-3.368-.589-1.867-1.908-3.428-2.881-5.113-.367-.516-.965-.826-1.605-.767zm-.04.28c.599-.236 1.773.632 1.051 1.086-.545-.146-1.747-.218-1.79-.874.196-.18.486-.206.739-.213zm-1.37.784c1.314.37-1.415 1.595-.67.274.177-.17.424-.27.67-.274zm3.139 1.011c.433.156 1.28 1.168.682 1.422-.307-.178-1.248-1.194-.682-1.422zm1.302 2.048c.997.682 1.973 2.46.748 3.367-.38-.608.332-1.604-.383-2.21-.113-.264-.862-.97-.365-1.157zm-.076 3.707c1.009.431-1.213 1.537-.812.414a.93.93 0 0 1 .812-.414z" transform="matrix(.24263 0 0 .24335 -63.649 31.278)"/>
		<path fill="none" stroke-width=".794" d="M396.562-48.94h16.042v37.718h-15.92V-48.94z" transform="matrix(.24263 0 0 .24335 -63.649 31.278)"/>
		<path fill="none" stroke-width=".794" d="M399.99-49.185v-3.306h8.328v3.429h4.286v2.571h4.286v8.573h-4.164v3.428h3.674v7.96h-3.551v4.531h3.429v8.45h-3.919v2.204h-3.919v3.919h-8.572v-4.041h-3.306v-2.205h-2.94v-8.572h2.817v-4.286h-3.184v-8.082h3.184v-3.551h-3.061v-8.45h3.184v-2.45h3.429z" transform="matrix(.24263 0 0 .24335 -63.649 31.278)"/>
		<path fill="#333" stroke-width=".752" d="M403.721-54.835c-1.199-.018-2.284.671-3.423.901.252.891 1.478 1.301 2.068.538.537.018.89-.236.883-.785.714-.838 1.926-.009 2.165.846.838.475 2.496.68 3.018-.301-.556-.807-1.853-.527-2.656-1.054-.671-.156-1.37-.161-2.055-.145zM417.572-46.743c-.4 1.046-.097 2.21.578 3.045.485.978-.205 1.794-.63 2.581-.057.752-.35 1.913.179 2.422 1.191-1.263 1.22-3.303 1.094-4.963-.28-1.023-.483-2.307-1.221-3.085zM417.4-34.739c-.854.62-.297 2.06-.497 2.97.083 1.783-.128 3.687.34 5.398.686.648 1.142-.872 1.216-1.34.281-1.387.985-2.703.412-4.142-.387-.87-.397-2.562-1.471-2.886zm.352 2.672c.651.527.525 1.862.126 2.55-.882.455-1.15-1.066-.813-1.63.116-.325.25-.905.687-.92zM417.562-22.166c-1.47.938-.614 3.052-.848 4.482.145 1.273-.196 2.829.375 3.948 1.333.37 1.265-1.636 1.665-2.423.888-1.876-.288-3.845-.858-5.653-.08-.126-.173-.34-.334-.354zm.064 2.84c.729.511.74 2.301-.218 2.585-.792-.508-.436-1.962.095-2.563a.234.234 0 0 1 .123-.022zM407.258-7.053c-.75-.04-1.33.449-1.626 1.093-.901.736-2.772.499-2.81-.85-.728-.036-1.832-.257-2.321.34.416 1.104 2.099.99 2.988 1.57 1.671.513 3.25-.773 4.79-1.105.024-.481-.503-1.116-1.021-1.048zM392.2-21.799c-.977.38-.604 1.787-1.129 2.579-1.008 1.795.114 3.693.546 5.468.92.368 2.044-.903 1.25-1.77-.273-.712-.333-1.68-1.219-1.89-.644-.551.093-1.111.487-1.438.257-.82 1.423-1.495.881-2.501a.806.806 0 0 0-.815-.448zM392.296-34.727c-1.012.364-.657 1.895-1.165 2.67-.57 1.212-.667 2.587.157 3.702.462.53.018 1.612.628 1.941 1.319-.35.954-2.193.446-3.097-1.32-.6-.563-2.505.372-3.13.196-.556.37-1.956-.438-2.086zM392.316-46.62c-1.02.58-1.112 2.11-1.425 3.17-.265 1.291-.09 2.628.639 3.716-.06.617.312 1.639 1.069 1.091.386-.907.257-2.202-.318-2.993-1.194-.33-.331-1.84.01-2.536.263-.665 1.016-1.965.162-2.447l-.055-.003zM470.992-100.883c-2.238-.066-3.537 2.445-3.285 4.456-.09 1.961.633 4.728 3.019 4.823 1.637.09 3.443-1.134 3.828-2.7-.817.188-1.56-.434-1.455-1.308.108-.935-.136-2.334.665-2.958.424.005.581 1.48.84.7-.32-1.745-1.737-3.214-3.612-3.013zm1.037.387c.983.378.344 1.911.588 2.694-.21 1.644.87 4.031-.872 5.14-1.563 1.086-3.028-.922-3.015-2.388-.271-1.679.036-3.885 1.632-4.79.643.015 1.054-.616 1.667-.656zM413.558-94.613c-.374.536-.975.973-1.606.458-.99.05-1.542 1.337-2.008 2.12-.575 2.306-.614 5.3 1.514 6.827 1.671.73 4.188.565 4.947-1.356.962-2.015.431-4.389.207-6.523-.256-1.218-1.884-.586-2.603-1.372-.142-.064-.288-.172-.451-.154zm.16 1.54c2.028.203 2.26 2.968 1.873 4.534-.327.999-.804 2.71-2.107 2.644-1.86-.67-1.465-2.945-1.43-4.492.033-1.19-.077-2.967 1.663-2.686zm-2.839 1.584c.986.143.458 2.177-.44 1.276-.757-.437-.275-1.23.44-1.276zm-.136 1.925c.552.202.614 1.551.108 1.692-.556-.27-.938-1.523-.108-1.692zM318.161-73.672c.375 1.177-.919 4.024 1.003 3.654h15.58v-7.308H318.16v3.654zm16.042-3.013c-.078 2.027.147 4.179-.106 6.132-2.358-.09-4.84.116-7.124-.147.072-2.001-.142-4.12.105-6.05 2.356.062 4.842-.172 7.125.065zm-15.134.15c1.134.518-.911 1.083-.202.057a.35.35 0 0 1 .202-.056z" transform="matrix(.24263 0 0 .24335 -63.649 31.278)"/>
		<path fill="#333" stroke-width=".752" d="M272.293-112.162c-.648.085-1.9-.125-2.248.209.796.947-.856 1.862-.951 2.564 2.033-1.188 4.613-.913 6.855-.596.314.133 1.554.577.982-.213-.55-.51-.738-1.283-.311-1.852-1.418-.227-2.895-.065-4.327-.112z" transform="matrix(.24263 0 0 .24335 -63.649 31.278)"/>
		<path fill="#333" stroke-width=".752" d="M268.137-111.777c-.167 2.47-.079 4.947-.102 7.42 3.15-.025 6.304.057 9.454-.057-1.164.006-1.384-1.38-.743-2.142.585-.941-.008-.502-.64-.442-2.033.166-4.075.068-6.112.096.305.844.412 2.64-.954 2.48-1.3-.014-.7-1.751-.747-2.554-.055-1.093.843-2.347-.069-3.253-.205-.48-.074-1.15-.087-1.548zm10.191 7.107c-.4.255-.133.268 0 0z" transform="matrix(.24263 0 0 .24335 -63.649 31.278)"/>
		<path fill="none" stroke-width=".794" d="M312.84 172.022l146.006.04-.122-20.258h-15.961v16.174h16.032l.198-16.174c5.58.165 8.03 5.787 8.03 15.536h28.305v-13.62h-2.66v13.513h-2.235V155.21H469.79v11.492h20.537v-12.769h-23.623v-.106h28.73v-20.217h-9.895v20.217" transform="matrix(.24263 0 0 .24335 -63.649 31.278)"/>
		<path fill="#333" stroke-width=".248" d="M520.618 155.62c-.038.037-.052.14-.032.228.02.087 0 .31-.046.494-.218.87-.777 1.157-1.925.983-.376-.056-.772-.082-.88-.057-.109.025-.388.206-.622.403-.264.222-.676.46-1.09.63-.395.162-.785.385-.959.547-.266.25-1.243.767-2.073 1.098-.18.072-.435.246-.564.387-.382.413-.507.503-.95.686-.665.273-.901.503-.96.937-.093.68-.473 1.007-1.429 1.231-.835.195-1.375.003-1.692-.602a300.75 300.75 0 0 0-.33-.632 3.32 3.32 0 0 0-.488-.637c-.33-.333-.947-1.535-1.08-2.104-.039-.17-.22-.45-.462-.716a4.559 4.559 0 0 1-.677-1.042c-.164-.355-.38-.688-.523-.806-.322-.266-1.135-2.018-1.21-2.606a160.74 160.74 0 0 0-.122-.947c-.108-.81-.023-1.137.373-1.441.184-.14.5-.444.703-.675.208-.236.504-.474.679-.545.464-.19.937-.47 1.401-.833.229-.179.717-.453 1.085-.608.369-.156.816-.406.995-.556.394-.33.909-.613 1.882-1.03.577-.249.805-.394 1.073-.686.41-.446.906-.668 2.134-.955.996-.232 1.22-.21 1.845.194.22.142.522.29.67.329.319.083 1.196 1.064 1.226 1.371.01.106.139.347.285.537.146.19.38.616.517.948.139.331.421.818.628 1.08.24.305.507.789.737 1.332.41.97.502 1.139.941 1.714.543.711 1.125 2.165.94 2.349zm-.44-1.153c-.222-.568-.583-1.06-.799-1.09-.355-.05-.348.617.015 1.357.207.422.162.727-.141.946-.315.227-.62.228-1.04.003-.305-.164-.399-.286-.785-1.017a56.493 56.493 0 0 0-1.396-2.39c-.526-.858-1.071-1.782-1.21-2.053-.173-.337-.428-.651-.806-.995-.715-.65-.868-1.053-.682-1.798.11-.442.175-.537.59-.868.255-.204.453-.418.44-.475-.083-.357-1.263-.303-2.517.116-.505.169-.64.25-.803.482-.29.413-.16.518.512.417.473-.07.594-.057.792.087.128.094.253.257.278.362.106.453-.553 1.177-1.418 1.56-.576.254-.901.505-.864.666.026.11.154.122.823.073.642-.047.973-.014 1 .1.035.153-.608.515-1.332.75l-.572.186-.055-.233c-.104-.435-.19-.456-1.067-.251-.69.16-.828.218-.99.41-.103.121-.185.29-.182.375.01.275.297.31 1.074.13.735-.171 1.013-.164.95.02-.053.159-.71.499-1.395.723l-.63.206-.247-.292c-.135-.161-.273-.29-.307-.287-.033.004-.58.12-1.216.26-1.277.28-1.34.32-1.163.742.059.142.238.667.399 1.167.252.788.348.98.715 1.446.272.344.534.8.732 1.27.21.5.415.85.641 1.093.207.223.49.688.747 1.227.228.477.567 1.11.753 1.408.367.585.374.67.09 1.095-.247.369-.597.415-1.196.159-.735-.315-.86-.082-.454.843.283.643 1.013.84 1.933.523.48-.166.59-.288.897-.993.217-.5.44-.709 1.188-1.115.231-.125.469-.316.529-.424.181-.327-.033-.39-.844-.25-1.121.195-1.37.07-1.706-.856-.248-.681-.597-1.356-.934-1.802-.399-.529-1.411-2.547-1.396-2.783.022-.327.189-.517.726-.823a6.8 6.8 0 0 0 .797-.526c.147-.124.608-.38 1.025-.57.418-.19 1.177-.613 1.688-.94.511-.328 1.232-.714 1.601-.858l.672-.263.243.177c.133.097.349.37.48.607.13.236.758 1.276 1.395 2.312l1.157 1.882.036.58c.043.683.11.765.639.775.193.004.666.05 1.05.104 1.468.205 1.98-.4 1.757-2.077a6.654 6.654 0 0 0-.217-.61zm-.983.132a15.918 15.918 0 0 1-.364-.684 8.736 8.736 0 0 0-.604-.972 4.725 4.725 0 0 1-.617-1.214c-.227-.65-.326-.812-.91-1.488-.105-.121-.296-.507-.425-.856-.147-.398-.342-.757-.52-.962-.158-.18-.303-.398-.323-.484-.048-.208-.621-1.206-.752-1.31-.14-.113-.504-.016-.85.225-.348.243-.445.677-.295 1.316.087.369.165.482.628.915.432.403.594.629.89 1.235.2.408.46.871.58 1.03.239.315.525.786.904 1.487.135.248.41.7.613 1.003.203.302.425.687.494.854.213.514.478.82.814.941.398.144.575.106.797-.17.186-.233.17-.476-.06-.866zm-2.892.511c-.192-.335-.523-.93-.736-1.32-.212-.391-.522-.873-.688-1.07a3.616 3.616 0 0 1-.498-.887c-.208-.559-.448-.855-.708-.875-.345-.027-1.503.492-2.053.92-.364.284-.825.543-1.4.787-.612.259-.99.475-1.319.754-.253.215-.635.46-.848.543-.454.179-.754.414-.781.614-.03.213.058.525.19.675.065.074.244.42.398.772.154.35.42.816.59 1.033.372.473.948 1.495 1.206 2.138.29.727.501.925.944.89a2.075 2.075 0 0 0 1.443-.693c.329-.349.469-.431 1.155-.68.58-.212.827-.342.96-.508.342-.43.793-.71 1.546-.96.814-.27.983-.417 1.008-.876.022-.422-.038-.609-.409-1.257zm-4.161-7.89c-.301-.141-.76.05-1.114.462-.275.321-.456.44-1.078.708a8.899 8.899 0 0 0-1.378.773c-.347.249-.983.628-1.415.843-1.136.567-2.012 1.197-2.08 1.496-.04.176-.022.276.07.38.11.125.205.124.746-.002.761-.177 1.236-.425 1.847-.958.337-.293.652-.48 1.117-.662.437-.17.764-.359.999-.575.192-.177.668-.472 1.06-.657 1.316-.62 1.906-1.49 1.226-1.808zm-3.216 13.364c-.097-.135-.386-.712-.643-1.283-.35-.776-.585-1.18-.935-1.606-.308-.375-.494-.68-.544-.892-.107-.455-.329-.851-.799-1.426-.354-.433-.44-.605-.645-1.293-.329-1.101-.585-1.554-.91-1.608a1.434 1.434 0 0 0-.56.057c-.47.15-.479.34-.08 1.609.273.864.388 1.12.67 1.49.187.245.494.734.683 1.087a14.99 14.99 0 0 0 1.077 1.743c.141.2.425.727.63 1.169.508 1.094.824 1.572 1.203 1.815.45.29.94.135 1.012-.321.04-.261.04-.263-.159-.541zM533.969 150.987c-.016.1-.121.306-.234.457a1.027 1.027 0 0 0-.124 1.052c.137.333.022.967-.233 1.285-.539.669-1.198 1.267-1.744 1.583-.329.19-.74.49-.913.667-.415.422-.886.541-1.383.35-.196-.076-.715-.164-1.155-.197-.439-.033-.88-.116-.98-.185-.099-.069-.38-.142-.625-.163-.244-.02-.544-.094-.667-.162-.588-.33-2.113-2.431-2.279-3.141-.105-.452-.024-2.105.124-2.525.062-.178.133-.462.157-.63.074-.527.28-.886.77-1.339.607-.56.654-.592 1.338-.909.315-.146.733-.413.93-.593.46-.422.935-.546 1.404-.365.316.122.93.167 1.67.124.49-.028.945.11 1.507.46.605.376.771.561 1.025 1.141.113.26.327.566.516.738.178.162.397.444.486.627.196.4.45 1.469.41 1.725zm-1.385-1.578a1.785 1.785 0 0 0-.444-.467c-.18-.129-.429-.434-.603-.74-.364-.637-.647-.802-1.465-.852-.323-.02-.633-.025-.689-.012-.056.013-.34-.054-.63-.15-.68-.222-.974-.155-1.595.362-.268.223-.667.467-.908.555-.73.267-.95.484-1.184 1.165-.116.335-.28.76-.367.946-.17.367-.175 1.42-.009 2.109.136.564.523 1.328.77 1.52.12.094.383.323.583.51.677.632 1.188.833 2.183.858.247.006.65.061.896.121.592.145.873.065 1.429-.405.256-.217.582-.445.724-.508.142-.063.488-.345.77-.627.506-.507.674-.875.581-1.272-.018-.08.031-.382.109-.673.245-.914.188-1.832-.15-2.44zM552.515 143.05c.005.115-.034.487-.087.826-.061.39-.063.858-.004 1.274.113.799.06 1.17-.228 1.59l-.22.32.198.843c.187.805.19.873.044 1.478-.173.725-.214 1.265-.146 1.92.065.617-.053 1.222-.293 1.504-.261.307-.895.596-1.395.636-.486.039-.94-.183-1.374-.67-.317-.357-.617-.442-1.134-.322-.297.069-.931-.013-1.168-.15-.2-.117-.348-.126-1.714-.115-.413.004-.868-.042-1.012-.101-.144-.06-.466-.102-.714-.095-1.038.028-1.235.02-1.683-.076-.56-.12-1.33-.097-1.688.05-.141.058-.36.25-.487.427-.205.286-.269.325-.573.346a3.722 3.722 0 0 1-.812-.07c-.406-.082-.51-.146-.767-.475-.421-.537-.531-1.063-.331-1.584.123-.322.135-.52.059-1.032-.16-1.076-.155-1.227.062-1.723.185-.423.2-.57.137-1.248-.05-.537-.033-.923.057-1.279.077-.298.121-.905.108-1.468-.024-1.021.003-1.384.109-1.49.036-.036.09-.268.118-.515.065-.557.768-1.641 1.24-1.91.164-.095.717-.267 1.226-.383.896-.203.972-.206 2.23-.084.716.07 1.53.119 1.808.11.278-.01.698.05.933.132.428.15.753.155 1.985.034.496-.048.804-.022 1.248.106.337.097.867.166 1.238.16.553-.008.762.039 1.408.318 1.043.451 1.12.542 1.392 1.623.121.486.225.977.23 1.093zm-1.105-1.5c-.1-.095-.36-.163-.715-.185a2.393 2.393 0 0 1-.985-.264c-.513-.275-1.252-.392-2.79-.44-.633-.02-1.323-.089-1.533-.154-.225-.07-.625-.097-.974-.067a5.262 5.262 0 0 1-1.117-.037c-.289-.05-.595-.073-.682-.053-.086.02-.286-.029-.443-.109-.372-.19-.927-.077-1.18.239-.227.284-.184.418.27.841.453.421.547.451 1.191.377.773-.088 1.103-.056 1.294.126.258.246.244.297-.133.491-.32.165-.66.548-.547.618.13.081.696.015.87-.102.225-.152.282-.283.226-.53-.038-.166-.004-.189.427-.29.258-.06.693-.12.966-.133.507-.025 1.25.101 1.276.218.039.165.578.172 1.423.02.503-.091 1.026-.14 1.163-.11.244.053.253.07.454.829.19.717.197.83.097 1.546-.06.425-.086.983-.059 1.241.028.258-.014.757-.092 1.109a5.013 5.013 0 0 0-.103 1.184c.071 1.009.04 1.674-.108 2.348-.186.845-.121 1.457.175 1.64.26.163.887.118 1.112-.079.227-.199.303-.386.32-.79.006-.188.08-.621.164-.961.117-.482.131-.785.063-1.364-.084-.707-.054-1.219.106-1.827.04-.149.05-.367.022-.484-.099-.43-.084-1.552.028-2.073.135-.63.171-1.041.152-1.733-.015-.552-.099-.81-.338-1.042zm-2.745 3.113c-.16-.152-.496-.176-.96-.068-.15.035-.538-.007-.882-.095a4.042 4.042 0 0 0-1.343-.107c-.438.03-.886.004-1.12-.066a3.519 3.519 0 0 0-.854-.113c-.257.002-.721-.03-1.032-.07-.747-.094-1.003-.035-1.344.31-.4.405-.513.702-.459 1.204.078.722.03 1.757-.108 2.335a4.043 4.043 0 0 0-.082 1.09c.027.3.024.69-.006.868-.05.295-.035.347.176.634.127.172.356.407.51.522.273.204.299.206.916.062.683-.159 1.098-.135 1.784.102.265.092.567.117.908.076.812-.099 1.403-.059 1.842.124.488.202 1.276.196 1.654-.015.271-.15.43-.591.348-.971-.025-.116.015-.434.088-.707.09-.34.116-.814.082-1.496-.027-.55-.004-1.277.053-1.618.214-1.287.182-1.664-.171-2zm-2.05-2.02c-.128.03-.436.298-.42.366.018.076.533-.026.59-.118.048-.077-.083-.269-.17-.249zm-6.332-.859c-.017-.089-.055-.321-.086-.515-.061-.394-.129-.441-.664-.463-.523-.022-.764.158-.928.692-.077.25-.208.572-.29.715-.116.198-.137.399-.09.854.088.836.065 1.16-.12 1.686-.129.37-.144.613-.08 1.256.074.748.031 1.184-.182 1.874-.05.16-.059.62-.021 1.024.038.404.05.91.026 1.126-.076.705-.034.876.255 1.044.197.114.349.13.613.07.301-.07.389-.14.602-.474.196-.308.247-.49.237-.861-.018-.681.03-1.254.158-1.911.074-.375.086-.825.034-1.281-.062-.553-.043-.85.092-1.389.094-.377.174-.95.178-1.272.01-.749.077-1.021.326-1.314.174-.204.186-.267.086-.467a1.89 1.89 0 0 1-.146-.394z" transform="matrix(.24263 0 0 .24335 -63.649 31.278)"/>
		<path fill="none" stroke-width=".794" d="M294.493 52.504h11.997v42.733h-11.883V92.38h10.055V55.018h-1.828v37.248h-8.227V83.24h8.113v-9.141h-8.227v9.255h.114V64.73h8.227V64.5h-8.227v-9.483h11.883V52.39h-11.997z" transform="matrix(.24263 0 0 .24335 -63.649 31.278)"/>
		<g fill="none" stroke-width=".794">
			<path d="M349.756 72.915h2.588v-8.76h18.714v8.561h3.185V60.572h-24.686v12.343z" transform="matrix(-.24262 -.00257 .00256 -.24334 111.869 77.79)"/>
			<path d="M352.344 64.156v-1.784h18.658v10.284h-8.684v-7.998h-.8v7.998h-9.174z" transform="matrix(-.24262 -.00257 .00256 -.24334 111.869 77.79)"/>
		</g>
		<g>
			<path fill="none" stroke-width=".794" d="M396.562-48.94h16.042v37.718h-15.92V-48.94z" transform="matrix(.24263 0 0 .24335 -94.271 71.667)"/>
			<path fill="none" stroke-width=".794" d="M399.99-49.185v-3.306h8.328v3.429h4.286v2.571h4.286v8.573h-4.164v3.428h3.674v7.96h-3.551v4.531h3.429v8.45h-3.919v2.204h-3.919v3.919h-8.572v-4.041h-3.306v-2.205h-2.94v-8.572h2.817v-4.286h-3.184v-8.082h3.184v-3.551h-3.061v-8.45h3.184v-2.45h3.429z" transform="matrix(.24263 0 0 .24335 -94.271 71.667)"/>
			<path fill="#333" stroke-width=".752" d="M403.721-54.835c-1.199-.018-2.284.671-3.423.901.252.891 1.478 1.301 2.068.538.537.018.89-.236.883-.785.714-.838 1.926-.009 2.165.846.838.475 2.496.68 3.018-.301-.556-.807-1.853-.527-2.656-1.054-.671-.156-1.37-.161-2.055-.145zM417.572-46.743c-.4 1.046-.097 2.21.578 3.045.485.978-.205 1.794-.63 2.581-.057.752-.35 1.913.179 2.422 1.191-1.263 1.22-3.303 1.094-4.963-.28-1.023-.483-2.307-1.221-3.085zM417.4-34.739c-.854.62-.297 2.06-.497 2.97.083 1.783-.128 3.687.34 5.398.686.648 1.142-.872 1.216-1.34.281-1.387.985-2.703.412-4.142-.387-.87-.397-2.562-1.471-2.886zm.352 2.672c.651.527.525 1.862.126 2.55-.882.455-1.15-1.066-.813-1.63.116-.325.25-.905.687-.92zM417.562-22.166c-1.47.938-.614 3.052-.848 4.482.145 1.273-.196 2.829.375 3.948 1.333.37 1.265-1.636 1.665-2.423.888-1.876-.288-3.845-.858-5.653-.08-.126-.173-.34-.334-.354zm.064 2.84c.729.511.74 2.301-.218 2.585-.792-.508-.436-1.962.095-2.563a.234.234 0 0 1 .123-.022zM407.258-7.053c-.75-.04-1.33.449-1.626 1.093-.901.736-2.772.499-2.81-.85-.728-.036-1.832-.257-2.321.34.416 1.104 2.099.99 2.988 1.57 1.671.513 3.25-.773 4.79-1.105.024-.481-.503-1.116-1.021-1.048zM392.2-21.799c-.977.38-.604 1.787-1.129 2.579-1.008 1.795.114 3.693.546 5.468.92.368 2.044-.903 1.25-1.77-.273-.712-.333-1.68-1.219-1.89-.644-.551.093-1.111.487-1.438.257-.82 1.423-1.495.881-2.501a.806.806 0 0 0-.815-.448zM392.296-34.727c-1.012.364-.657 1.895-1.165 2.67-.57 1.212-.667 2.587.157 3.702.462.53.018 1.612.628 1.941 1.319-.35.954-2.193.446-3.097-1.32-.6-.563-2.505.372-3.13.196-.556.37-1.956-.438-2.086zM392.316-46.62c-1.02.58-1.112 2.11-1.425 3.17-.265 1.291-.09 2.628.639 3.716-.06.617.312 1.639 1.069 1.091.386-.907.257-2.202-.318-2.993-1.194-.33-.331-1.84.01-2.536.263-.665 1.016-1.965.162-2.447l-.055-.003z" transform="matrix(.24263 0 0 .24335 -94.271 71.667)"/>
		</g>
	</g>
</svg>
