<svg class="filter" data-z="102" viewBox="0 0 130.821 87.938">
	<path d="M6.725 6.722c-.678.01-1.135.032-1.815.032.065.125-.083.512-.152.646-.299.633-3.379 10.985-3.552 11.549.166.03.137.088.287.008.332-.358.548-1.194.655-1.58.46.123 1.227.341 1.6.43-.113.55-.363 1.478-.382 2.053.159.018.11.04.268-.007.429-1.45 1.77-7.007 2.036-8.062.036-.093.038-.288.178-.27.11.092.077.27.117.397.29 1.9.511 3.811.806 5.708.041.12.012.323.163.367.07.027.242-.068.219-.15-.073-.582-.284-2.395-.471-3.504.16-.029 1.368-.19 1.536-.22.059.24.456 2.278.66 3.22.11.43.168.876.336 1.289.032.096.24.146.263.024-.04-.506-.185-.998-.28-1.496-.22-.976-.409-1.958-.613-2.937-.42-2.222-1.115-4.452-1.415-6.483-.007-.235-.048-.482.018-.71.051-.109.207-.148.234-.265-.227-.05-.465-.036-.696-.039zm-.048 1.131c.153.034.144.235.192.353.052.237.121.486.088.727a.649.649 0 0 1-.545.064c-.126-.109-.02-.294-.008-.43.063-.232.094-.484.214-.694a.077.077 0 0 1 .059-.02zm-1.35.064c.159.063.141.28.178.418.01.154.11.324.04.472-.12.086-.294.081-.433.052-.16-.074-.075-.285-.042-.413.064-.174.089-.38.216-.52a.07.07 0 0 1 .042-.009zm1.825 1.319c.051.479.261 1.089.286 1.466-.328.014-.805.042-1.082.052-.008-.141-.127-1.202-.137-1.429.28-.043.746-.073.933-.09zm-1.377.26c-.09.423-.238 1.11-.344 1.512-.258-.053-1.2-.234-1.355-.306.07-.397.299-1.104.418-1.474.213.039 1.063.222 1.281.268zm1.49 1.405c-.007.36-.03.723-.099 1.076-.026.113-.185.11-.218.003-.163-.366-.339-.605-.417-1.002.116-.041.282-.103.387-.122.092-.01.142 0 .348.045zm-1.91.502c-.107.444-.273 1.174-.44 1.702-.224-.042-1.172-.273-1.376-.322.154-.571.307-1.172.459-1.665.272.055 1.149.242 1.357.285zm.995-.139c.137.069.17.249.248.37.169.388.415.822.518 1.235.025.305-.268.986-.368 1.277-.065.186-.079.092-.133-.107-.094-.217-.113-.775-.167-1.002-.068-.55-.161-1.098-.193-1.651-.001-.056.024-.133.095-.122zm1.154.308c.149.055.138.256.188.382.138.608.35 1.26.41 1.883.03.121-.005.23-.074.12-.252-.342-.634-.711-.732-1.125-.027-.337.065-.784.101-1.12.009-.058.03-.148.107-.14zM4.82 13.478c-.09.412-.352 1.518-.438 1.848-.398-.093-1.143-.261-1.509-.361.123-.451.39-1.349.52-1.801.292.074 1.12.242 1.427.314zm-.53 2.163c-.13.485-.307 1.272-.45 1.78a13.98 13.98 0 0 1-1.55-.434c.133-.511.341-1.274.496-1.696.36.077 1.116.26 1.503.35z"/>
</svg>
