<svg class="filter" data-z="102" viewBox="0 0 130.821 87.938">
  <g fill="none" stroke="#888" stroke-width="7.408" mask="url(#a)">
    <path d="M14.947 22.795l.082 38.443c16.467-.275 41.25.438 49.406-.502 6.209-.328 9.144-3.87 12.234-7.623 3.127-5.011 3.548-11.665 1.11-16.988-1.62-3.331-3.514-6.45-8.268-8.301-6.395-2.218-12.737-1.772-19.435-1.509l-.088 27.165"/>
    <path d="M14.936 22.795v20.618h21.458"/>
    <path d="M14.936 22.795v3.703h27.14"/>
    <path d="M14.947 22.795l.082 38.443c16.465-.275 32.966.437 49.406-.502 4.51-.99 8.986-4.004 11.765-6.974 2.592-3.606 8.862 1.661 12.762 3.464 5.917 2.908 13.532 6.138 20.063 2.836 4.74-3.09 3.357-10.703-1.241-13.442-5.46-3.038-12.859-1.938-17.28-7.474-2.658-4.75 1.111-11.035 6.37-12.292 5.538-1.305 10.999 1.337 15.726 3.934"/>
  </g>
  <mask id="a">
    <path fill="#fff" d="M0 0h125v80H0z"/>
    <path fill="none" stroke="#000" stroke-width="3.9" d="M84.629 49.456L80.4 57.913"/>
  </mask>
  <path fill="none" stroke="#000" stroke-width="6" d="M85.396 49.487c-1.11 4.279-2.139 5.965-4.674 9.481"/>
</svg>
